<svg version="1" xmlns="http://www.w3.org/2000/svg" width="473.333" height="473.333" viewBox="0 0 355.000000 355.000000"><path d="M176.9 61.4c-62.5 22.7-114.1 41.6-114.8 42-.8.5-1.1 8.5-1.1 27.7 0 22.6.2 27 1.4 26.7.7-.2 52.7-19 115.5-41.8L292 74.5V47.2c0-14.9-.3-27.2-.7-27.2-.5 0-51.9 18.7-114.4 41.4zM176.5 155.9l-90 32.8-.3 21.2c-.1 11.6.1 21.1.5 21.1.5-.1 41.3-14.8 90.8-32.8l90-32.8.3-21.2c.1-11.7-.1-21.2-.5-21.1-.5 0-41.3 14.8-90.8 32.8zM176.9 236.4c-62.5 22.7-114.2 41.7-114.8 42-.8.5-1.1 9-1.1 27.7 0 22.6.2 27 1.4 26.7.7-.2 52.7-19 115.5-41.8L292 249.5v-27.3c0-14.9-.3-27.2-.7-27.2-.5.1-51.9 18.7-114.4 41.4z"/></svg>